<?xml version="1.0" encoding="UTF-8"?>
<!DOCTYPE svg PUBLIC "-//W3C//DTD SVG 1.1//EN" "http://www.w3.org/Graphics/SVG/1.1/DTD/svg11.dtd">
<svg version="1.2" width="150mm" height="50mm" viewBox="0 0 15000 5000" preserveAspectRatio="xMidYMid" fill-rule="evenodd" stroke-width="28.222" stroke-linejoin="round" xmlns="http://www.w3.org/2000/svg" xmlns:ooo="http://xml.openoffice.org/svg/export" xmlns:xlink="http://www.w3.org/1999/xlink" xmlns:presentation="http://sun.com/xmlns/staroffice/presentation" xmlns:smil="http://www.w3.org/2001/SMIL20/" xmlns:anim="urn:oasis:names:tc:opendocument:xmlns:animation:1.0" xmlns:svg="urn:oasis:names:tc:opendocument:xmlns:svg-compatible:1.0" xml:space="preserve">
 <defs class="ClipPathGroup">
  <clipPath id="presentation_clip_path" clipPathUnits="userSpaceOnUse">
   <rect x="0" y="0" width="15000" height="5000"/>
  </clipPath>
  <clipPath id="presentation_clip_path_shrink" clipPathUnits="userSpaceOnUse">
   <rect x="15" y="5" width="14970" height="4990"/>
  </clipPath>
 </defs>
 <defs class="TextShapeIndex">
  <g ooo:slide="id1" ooo:id-list="id3 id4"/>
 </defs>
 <defs class="EmbeddedBulletChars">
  <g id="bullet-char-template-57356" transform="scale(0.00048828125,-0.00048828125)">
   <path d="M 580,1141 L 1163,571 580,0 -4,571 580,1141 Z"/>
  </g>
  <g id="bullet-char-template-57354" transform="scale(0.00048828125,-0.00048828125)">
   <path d="M 8,1128 L 1137,1128 1137,0 8,0 8,1128 Z"/>
  </g>
  <g id="bullet-char-template-10146" transform="scale(0.00048828125,-0.00048828125)">
   <path d="M 174,0 L 602,739 174,1481 1456,739 174,0 Z M 1358,739 L 309,1346 659,739 1358,739 Z"/>
  </g>
  <g id="bullet-char-template-10132" transform="scale(0.00048828125,-0.00048828125)">
   <path d="M 2015,739 L 1276,0 717,0 1260,543 174,543 174,936 1260,936 717,1481 1274,1481 2015,739 Z"/>
  </g>
  <g id="bullet-char-template-10007" transform="scale(0.00048828125,-0.00048828125)">
   <path d="M 0,-2 C -7,14 -16,27 -25,37 L 356,567 C 262,823 215,952 215,954 215,979 228,992 255,992 264,992 276,990 289,987 310,991 331,999 354,1012 L 381,999 492,748 772,1049 836,1024 860,1049 C 881,1039 901,1025 922,1006 886,937 835,863 770,784 769,783 710,716 594,584 L 774,223 C 774,196 753,168 711,139 L 727,119 C 717,90 699,76 672,76 641,76 570,178 457,381 L 164,-76 C 142,-110 111,-127 72,-127 30,-127 9,-110 8,-76 1,-67 -2,-52 -2,-32 -2,-23 -1,-13 0,-2 Z"/>
  </g>
  <g id="bullet-char-template-10004" transform="scale(0.00048828125,-0.00048828125)">
   <path d="M 285,-33 C 182,-33 111,30 74,156 52,228 41,333 41,471 41,549 55,616 82,672 116,743 169,778 240,778 293,778 328,747 346,684 L 369,508 C 377,444 397,411 428,410 L 1163,1116 C 1174,1127 1196,1133 1229,1133 1271,1133 1292,1118 1292,1087 L 1292,965 C 1292,929 1282,901 1262,881 L 442,47 C 390,-6 338,-33 285,-33 Z"/>
  </g>
  <g id="bullet-char-template-9679" transform="scale(0.00048828125,-0.00048828125)">
   <path d="M 813,0 C 632,0 489,54 383,161 276,268 223,411 223,592 223,773 276,916 383,1023 489,1130 632,1184 813,1184 992,1184 1136,1130 1245,1023 1353,916 1407,772 1407,592 1407,412 1353,268 1245,161 1136,54 992,0 813,0 Z"/>
  </g>
  <g id="bullet-char-template-8226" transform="scale(0.00048828125,-0.00048828125)">
   <path d="M 346,457 C 273,457 209,483 155,535 101,586 74,649 74,723 74,796 101,859 155,911 209,963 273,989 346,989 419,989 480,963 531,910 582,859 608,796 608,723 608,648 583,586 532,535 482,483 420,457 346,457 Z"/>
  </g>
  <g id="bullet-char-template-8211" transform="scale(0.00048828125,-0.00048828125)">
   <path d="M -4,459 L 1135,459 1135,606 -4,606 -4,459 Z"/>
  </g>
  <g id="bullet-char-template-61548" transform="scale(0.00048828125,-0.00048828125)">
   <path d="M 173,740 C 173,903 231,1043 346,1159 462,1274 601,1332 765,1332 928,1332 1067,1274 1183,1159 1299,1043 1357,903 1357,740 1357,577 1299,437 1183,322 1067,206 928,148 765,148 601,148 462,206 346,322 231,437 173,577 173,740 Z"/>
  </g>
 </defs>
 <g>
  <g id="id2" class="Master_Slide">
   <g id="bg-id2" class="Background"/>
   <g id="bo-id2" class="BackgroundObjects"/>
  </g>
 </g>
 <g class="SlideGroup">
  <g>
   <g id="container-id1">
    <g id="id1" class="Slide" clip-path="url(#presentation_clip_path)">
     <g class="Page">
      <g class="Group">
       <g class="com.sun.star.drawing.ClosedBezierShape">
        <g id="id3">
         <rect class="BoundingBox" stroke="none" fill="none" x="1000" y="596" width="13160" height="4155"/>
         <g>
          <defs>
           <linearGradient id="gradient1" x1="7579" y1="596" x2="7579" y2="4750" gradientUnits="userSpaceOnUse">
            <stop offset="0" style="stop-color:rgb(52,194,236)"/>
            <stop offset="1" style="stop-color:rgb(0,108,162)"/>
           </linearGradient>
          </defs>
          <path style="fill:url(#gradient1)" d="M 8843,713 L 8843,699 8845,686 8847,673 8850,662 8854,651 8859,642 8865,633 8872,625 8880,618 8889,612 8898,607 8909,603 8920,600 8933,598 8946,596 8960,596 8974,596 8987,598 9000,600 9011,603 9022,607 9032,612 9040,618 9048,625 9055,633 9061,642 9066,651 9071,662 9074,673 9076,686 9078,699 9078,713 9078,2120 9078,2134 9076,2147 9074,2160 9071,2171 9066,2182 9061,2191 9055,2200 9048,2208 9040,2215 9032,2221 9022,2226 9011,2230 9000,2233 8987,2235 8974,2237 8960,2237 8946,2237 8933,2235 8920,2233 8909,2230 8898,2226 8889,2221 8880,2215 8872,2208 8865,2200 8859,2191 8854,2182 8850,2171 8847,2160 8845,2147 8843,2134 8843,2120 8843,713 Z M 1234,1009 L 1234,2120 1234,2134 1232,2147 1230,2160 1227,2171 1223,2182 1218,2191 1212,2200 1205,2208 1197,2215 1188,2221 1179,2226 1168,2230 1157,2233 1144,2235 1131,2237 1117,2237 1103,2237 1090,2235 1077,2233 1066,2230 1055,2226 1046,2221 1037,2215 1029,2208 1022,2200 1016,2191 1011,2182 1007,2171 1004,2160 1002,2147 1000,2134 1000,2120 1000,713 1000,699 1002,686 1004,673 1007,662 1011,651 1016,642 1022,633 1029,625 1037,618 1046,612 1055,607 1066,603 1077,600 1090,598 1103,596 1117,596 1126,596 1134,597 1142,597 1150,598 1158,600 1165,601 1171,604 1178,606 1218,640 1820,1243 2424,640 2463,606 2470,604 2476,601 2483,600 2491,598 2499,597 2507,597 2515,596 2524,596 2538,596 2551,598 2564,600 2575,603 2586,607 2595,612 2604,618 2612,625 2619,633 2625,642 2630,651 2634,662 2637,673 2639,686 2641,699 2641,713 2641,2120 2641,2134 2639,2147 2637,2160 2634,2171 2630,2182 2625,2191 2619,2200 2612,2208 2604,2215 2595,2221 2586,2226 2575,2230 2564,2233 2551,2235 2538,2237 2524,2237 2510,2237 2497,2235 2484,2233 2473,2230 2462,2226 2453,2221 2444,2215 2436,2208 2429,2200 2423,2191 2418,2182 2414,2171 2411,2160 2409,2147 2407,2134 2407,2120 2407,1009 1820,1594 1234,1009 Z M 3167,2194 L 3157,2204 3146,2212 3136,2219 3126,2225 3115,2229 3105,2233 3095,2235 3084,2235 3074,2235 3064,2233 3053,2229 3043,2225 3032,2219 3022,2212 3011,2204 3001,2194 2991,2184 2983,2173 2976,2163 2970,2152 2966,2142 2962,2131 2960,2121 2960,2111 2960,2100 2962,2090 2966,2080 2970,2070 2976,2059 2983,2049 2991,2039 3001,2029 4377,656 4388,643 4394,637 4400,632 4406,627 4413,622 4419,618 4426,614 4433,610 4440,607 4448,604 4456,602 4471,598 4488,596 4502,596 4514,598 4526,600 4537,603 4547,607 4557,612 4565,618 4573,625 4579,632 4585,641 4590,650 4594,660 4598,671 4600,683 4601,696 4602,710 4602,729 4602,2120 4602,2134 4600,2147 4598,2160 4595,2171 4591,2182 4586,2191 4580,2200 4573,2208 4565,2215 4556,2221 4547,2226 4536,2230 4525,2233 4512,2235 4499,2237 4485,2237 4471,2237 4457,2235 4445,2233 4433,2230 4423,2226 4413,2221 4404,2215 4396,2208 4389,2200 4384,2191 4378,2182 4374,2171 4371,2160 4369,2147 4367,2134 4367,2120 4367,995 3167,2194 Z M 5692,1534 L 5155,1534 5155,2027 5155,2120 5155,2944 5155,2945 5157,3012 5162,3077 5182,3206 5214,3330 5258,3449 5312,3562 5377,3669 5452,3768 5535,3860 5627,3944 5727,4019 5833,4084 5947,4138 6066,4182 6190,4214 6254,4225 6318,4233 6384,4238 6451,4240 6877,4240 6883,4240 6889,4240 6894,4239 6898,4239 6902,4238 6907,4237 6918,4234 6925,4232 6933,4230 6940,4227 6947,4224 6953,4220 6960,4216 6966,4212 6972,4207 6978,4202 6984,4197 6989,4192 6994,4187 6999,4181 7004,4175 7008,4169 7012,4162 7015,4158 7016,4157 7016,4156 7017,4155 7017,4154 7031,4133 7046,4113 7062,4095 7079,4077 7097,4061 7116,4045 7135,4031 7156,4018 7178,4006 7202,3996 7225,3987 7250,3979 7275,3973 7300,3969 7326,3967 7352,3966 7372,3967 7392,3968 7411,3971 7430,3974 7468,3984 7504,3997 7538,4013 7571,4033 7601,4055 7630,4080 7630,4081 7630,4081 7630,4081 7655,4109 7678,4139 7698,4171 7714,4206 7727,4242 7737,4279 7740,4298 7743,4318 7744,4338 7745,4358 7746,4374 7748,4389 7752,4404 7757,4419 7763,4432 7771,4445 7780,4457 7790,4468 7801,4478 7814,4487 7827,4495 7840,4501 7855,4506 7870,4510 7885,4512 7901,4513 7917,4512 7932,4510 7947,4506 7962,4501 7975,4495 7988,4487 8000,4478 8011,4468 8021,4457 8030,4445 8038,4432 8044,4419 8049,4404 8053,4389 8055,4374 8056,4358 8057,4338 8058,4318 8061,4298 8064,4279 8074,4242 8087,4206 8103,4171 8123,4139 8146,4109 8171,4081 8171,4081 8172,4080 8172,4080 8200,4055 8230,4032 8262,4013 8297,3996 8332,3983 8370,3974 8408,3968 8448,3966 8468,3967 8488,3968 8527,3974 8564,3984 8600,3997 8635,4013 8667,4033 8697,4055 8725,4080 8725,4081 8726,4081 8726,4081 8751,4109 8774,4139 8793,4171 8810,4206 8823,4242 8832,4279 8838,4318 8840,4358 8840,4359 8841,4375 8844,4390 8848,4405 8853,4419 8859,4433 8867,4445 8876,4457 8886,4468 8886,4468 8897,4478 8909,4487 8922,4495 8935,4501 8950,4506 8965,4510 8980,4512 8996,4513 9012,4512 9027,4510 9042,4506 9057,4501 9070,4495 9083,4487 9095,4478 9106,4468 9111,4463 9116,4457 9121,4451 9125,4445 9130,4439 9133,4432 9137,4426 9140,4419 9143,4412 9145,4404 9149,4389 9151,4374 9152,4358 9153,4338 9154,4318 9157,4298 9160,4279 9170,4242 9183,4206 9199,4171 9219,4139 9242,4109 9267,4081 9267,4081 9267,4080 9268,4080 9296,4055 9326,4032 9358,4013 9392,3996 9428,3983 9465,3974 9504,3968 9544,3966 9564,3967 9584,3968 9623,3974 9660,3984 9696,3997 9731,4013 9763,4033 9793,4055 9821,4080 9821,4081 9821,4081 9822,4081 9847,4109 9869,4139 9889,4171 9905,4206 9918,4242 9928,4279 9934,4318 9935,4338 9936,4358 9936,4370 9936,4374 9937,4376 9937,4378 9938,4381 9939,4385 9940,4393 9942,4398 9942,4400 9943,4403 9948,4417 9955,4431 9962,4444 9971,4456 9980,4466 9991,4476 10002,4485 10014,4493 10014,4493 10027,4500 10040,4505 10054,4509 10068,4512 10082,4514 10097,4514 10112,4513 10127,4510 10130,4509 10132,4509 10137,4507 10146,4504 10155,4500 10164,4496 10172,4491 10180,4486 10188,4481 10195,4475 10202,4468 10202,4468 10209,4461 10215,4453 10221,4445 10227,4437 10231,4428 10235,4419 10239,4410 10242,4400 10242,4398 10248,4379 10254,4361 10261,4343 10270,4326 10279,4309 10288,4293 10299,4277 10310,4261 10322,4246 10335,4232 10348,4219 10362,4206 10377,4193 10392,4182 10408,4170 10425,4160 10425,4160 10436,4154 10448,4148 10460,4143 10471,4138 10481,4134 10491,4130 10502,4126 10512,4123 10517,4122 10521,4120 10526,4119 10531,4119 10535,4118 10540,4117 10545,4117 10550,4117 14041,4117 14053,4118 14065,4119 14076,4122 14087,4126 14097,4131 14107,4137 14116,4144 14124,4152 14132,4160 14139,4169 14145,4179 14150,4189 14154,4200 14157,4211 14158,4223 14159,4235 14158,4247 14157,4259 14154,4270 14150,4281 14145,4291 14139,4301 14132,4310 14124,4318 14116,4326 14107,4333 14097,4339 14087,4344 14076,4348 14065,4351 14053,4352 14041,4353 10567,4353 10561,4355 10543,4364 10543,4364 10543,4364 10536,4368 10530,4372 10524,4377 10518,4382 10513,4387 10507,4392 10502,4398 10497,4404 10493,4410 10489,4417 10485,4423 10481,4430 10478,4437 10475,4444 10473,4451 10471,4458 10470,4459 10462,4484 10453,4508 10443,4531 10431,4554 10417,4575 10403,4596 10386,4616 10369,4635 10369,4635 10369,4635 10368,4635 10349,4652 10330,4669 10309,4683 10288,4697 10265,4709 10242,4719 10218,4728 10193,4736 10190,4737 10171,4742 10151,4745 10113,4749 10074,4749 10037,4746 10000,4739 9964,4728 9929,4714 9896,4697 9896,4697 9896,4697 9864,4677 9835,4653 9807,4627 9782,4599 9760,4567 9741,4533 9733,4516 9725,4497 9719,4478 9713,4459 9713,4458 9710,4446 9708,4434 9706,4422 9704,4409 9702,4395 9701,4382 9700,4370 9700,4358 9699,4342 9697,4326 9693,4311 9688,4297 9685,4290 9682,4283 9678,4277 9674,4270 9670,4264 9665,4259 9660,4253 9655,4248 9654,4247 9643,4237 9631,4228 9618,4220 9605,4214 9590,4209 9575,4205 9560,4203 9544,4202 9528,4203 9513,4205 9498,4209 9483,4214 9470,4220 9457,4228 9445,4237 9434,4247 9433,4248 9423,4259 9415,4270 9407,4283 9400,4297 9395,4311 9391,4326 9390,4334 9389,4342 9388,4350 9388,4358 9387,4378 9386,4398 9383,4418 9380,4437 9370,4474 9357,4510 9341,4545 9321,4577 9298,4607 9273,4635 9245,4660 9215,4683 9183,4703 9149,4719 9113,4732 9075,4742 9036,4748 9016,4749 8996,4750 8976,4749 8956,4748 8937,4745 8917,4742 8880,4732 8844,4719 8810,4703 8777,4683 8747,4660 8719,4635 8719,4635 8719,4635 8719,4634 8694,4606 8671,4576 8651,4544 8635,4510 8622,4474 8612,4436 8609,4417 8606,4398 8605,4378 8604,4358 8604,4357 8603,4341 8601,4326 8597,4311 8592,4297 8586,4283 8582,4277 8578,4270 8574,4264 8569,4259 8564,4253 8559,4248 8559,4247 8548,4237 8536,4228 8523,4220 8510,4214 8495,4209 8480,4205 8464,4203 8448,4202 8432,4203 8417,4205 8402,4209 8387,4214 8374,4220 8361,4228 8349,4237 8338,4247 8338,4248 8333,4253 8328,4259 8323,4264 8319,4270 8315,4277 8311,4283 8308,4290 8305,4297 8300,4311 8296,4326 8294,4342 8293,4358 8292,4378 8291,4398 8288,4418 8285,4437 8275,4474 8262,4510 8246,4545 8226,4577 8203,4607 8178,4635 8150,4660 8120,4683 8088,4703 8053,4719 8017,4732 7980,4742 7961,4745 7941,4748 7921,4749 7901,4750 7881,4749 7861,4748 7841,4745 7822,4742 7784,4732 7748,4719 7713,4703 7681,4683 7651,4660 7623,4635 7597,4607 7575,4577 7555,4545 7538,4510 7525,4474 7519,4456 7515,4437 7512,4418 7509,4398 7508,4378 7507,4358 7506,4342 7504,4326 7500,4311 7495,4297 7492,4290 7489,4283 7485,4277 7481,4270 7477,4264 7472,4259 7467,4253 7462,4248 7462,4247 7451,4237 7439,4228 7426,4220 7413,4214 7398,4209 7383,4205 7368,4203 7352,4202 7342,4202 7331,4203 7321,4205 7311,4207 7301,4210 7292,4214 7283,4218 7274,4223 7266,4228 7258,4233 7251,4239 7244,4245 7237,4252 7230,4259 7224,4267 7219,4275 7217,4280 7207,4297 7196,4313 7184,4328 7172,4343 7159,4357 7145,4370 7131,4383 7116,4395 7100,4406 7084,4417 7068,4426 7051,4435 7034,4443 7016,4450 6998,4457 6979,4462 6967,4465 6954,4468 6941,4470 6928,4472 6914,4474 6901,4475 6889,4476 6877,4476 6451,4476 6372,4474 6294,4468 6218,4458 6142,4445 5995,4407 5855,4355 5721,4291 5595,4214 5477,4126 5368,4027 5269,3918 5181,3800 5104,3674 5039,3540 4988,3400 4950,3253 4937,3177 4927,3101 4921,3023 4919,2944 4919,2942 4919,2027 4919,2022 4920,2017 4921,2006 4921,713 4921,699 4923,686 4925,673 4928,662 4932,651 4937,642 4943,633 4950,625 4958,618 4967,612 4976,607 4987,603 4998,600 5011,598 5024,596 5038,596 6093,596 6150,598 6203,603 6253,612 6298,625 6341,642 6379,662 6414,686 6445,713 6473,744 6497,779 6517,818 6534,860 6546,905 6556,955 6561,1008 6563,1065 6561,1122 6556,1175 6546,1224 6534,1270 6517,1312 6497,1350 6473,1385 6445,1416 6414,1444 6379,1467 6341,1488 6298,1504 6253,1517 6203,1526 6150,1532 6093,1534 6023,1534 6521,2031 6531,2041 6539,2052 6547,2062 6553,2072 6557,2083 6560,2093 6562,2103 6563,2114 6562,2124 6560,2134 6557,2144 6553,2155 6547,2165 6539,2175 6531,2186 6521,2196 6511,2206 6500,2214 6490,2222 6480,2228 6469,2232 6459,2235 6449,2237 6439,2238 6428,2237 6418,2235 6408,2232 6397,2228 6387,2222 6377,2214 6366,2206 6356,2196 5692,1534 Z M 6093,1299 L 6122,1298 6148,1295 6173,1291 6196,1284 6217,1276 6236,1266 6254,1254 6269,1241 6283,1225 6295,1208 6305,1188 6313,1167 6320,1145 6324,1120 6327,1093 6328,1065 6327,1036 6324,1010 6320,985 6313,962 6305,941 6295,922 6283,904 6269,889 6254,875 6236,863 6217,853 6196,845 6173,838 6148,834 6122,831 6093,830 5155,830 5155,1299 6093,1299 Z M 6881,2120 L 6881,713 6881,699 6883,686 6885,673 6888,662 6893,651 6898,642 6904,633 6911,625 6919,618 6927,612 6937,607 6948,603 6959,600 6972,598 6985,596 6999,596 7013,596 7026,598 7039,600 7050,603 7061,607 7070,612 7079,618 7087,625 7094,633 7100,642 7105,651 7109,662 7112,673 7114,686 7116,699 7116,713 7116,2003 8407,2003 8421,2003 8434,2005 8447,2007 8458,2010 8469,2014 8478,2019 8487,2025 8495,2032 8502,2040 8508,2049 8513,2058 8517,2069 8520,2080 8522,2093 8524,2106 8524,2120 8524,2134 8522,2147 8520,2160 8517,2171 8513,2182 8508,2191 8502,2200 8495,2208 8487,2215 8478,2221 8469,2226 8458,2230 8447,2233 8434,2235 8421,2237 8407,2237 6999,2237 6985,2237 6972,2235 6959,2233 6948,2230 6937,2226 6927,2221 6919,2215 6911,2208 6904,2200 6898,2191 6893,2182 6888,2171 6885,2160 6883,2147 6881,2134 6881,2120 Z M 10804,1009 L 10217,1594 9631,1009 9631,1084 9631,2120 9631,2134 9629,2147 9627,2160 9624,2171 9620,2182 9615,2191 9609,2200 9602,2208 9594,2215 9585,2221 9576,2226 9565,2230 9554,2233 9541,2235 9528,2237 9514,2237 9500,2237 9487,2235 9474,2233 9463,2230 9452,2226 9443,2221 9434,2215 9426,2208 9419,2200 9413,2191 9408,2182 9404,2171 9401,2160 9399,2147 9397,2134 9397,2120 9397,858 9397,837 9397,816 9397,796 9397,775 9397,754 9397,734 9397,713 9397,709 9397,709 9397,706 9397,706 9397,702 9397,702 9397,699 9397,699 9397,695 9397,695 9398,692 9398,692 9398,689 9398,689 9398,685 9398,685 9399,682 9401,674 9402,666 9405,658 9408,651 9411,645 9414,639 9419,633 9423,628 9428,623 9433,618 9439,614 9445,610 9452,607 9459,604 9466,602 9474,600 9474,600 9477,599 9477,599 9480,598 9480,598 9482,598 9483,598 9486,598 9489,597 9491,597 9493,597 9496,596 9500,596 9500,596 9503,596 9507,596 9510,596 9514,596 9515,596 9515,596 9516,596 9516,596 9517,596 9517,596 9518,596 9518,596 9519,596 9519,596 9520,596 9521,596 9521,596 9522,596 9522,596 9523,596 9524,596 9524,596 9525,596 9525,596 9526,596 9526,596 9527,596 9537,597 9546,598 9555,600 9563,602 9563,602 9564,602 9564,602 9565,603 9565,603 9566,603 9566,603 9575,606 9585,615 9615,640 10217,1243 10820,640 10850,615 10860,606 10869,603 10869,603 10870,603 10870,603 10871,602 10871,602 10871,602 10872,602 10876,601 10880,600 10889,598 10898,597 10908,596 10909,596 10909,596 10910,596 10910,596 10911,596 10911,596 10912,596 10912,596 10913,596 10913,596 10914,596 10914,596 10915,596 10916,596 10916,596 10917,596 10918,596 10918,596 10919,596 10919,596 10920,596 10920,596 10921,596 10925,596 10928,596 10932,596 10935,596 10935,596 10939,596 10942,597 10944,597 10945,597 10949,598 10952,598 10953,598 10955,598 10955,598 10958,599 10958,599 10961,600 10961,600 10969,602 10976,605 10983,607 10990,611 10996,614 11002,618 11007,623 11012,628 11016,633 11021,639 11024,645 11027,652 11030,659 11033,666 11034,674 11036,682 11036,685 11036,685 11037,689 11037,689 11037,692 11037,692 11038,695 11038,695 11038,699 11038,699 11038,702 11038,702 11038,706 11038,706 11038,709 11038,709 11038,713 11038,734 11038,754 11038,775 11038,796 11038,816 11038,837 11038,858 11038,2120 11038,2134 11036,2147 11034,2160 11031,2171 11027,2182 11022,2191 11016,2200 11009,2208 11001,2215 10992,2221 10983,2226 10972,2230 10961,2233 10948,2235 10935,2237 10921,2237 10907,2237 10894,2235 10881,2233 10870,2230 10859,2226 10850,2221 10841,2215 10833,2208 10826,2200 10820,2191 10815,2182 10811,2171 10808,2160 10806,2147 10804,2134 10804,2120 10804,1084 10804,1009 Z"/>
         </g>
        </g>
       </g>
       <g class="com.sun.star.drawing.ClosedBezierShape">
        <g id="id4">
         <rect class="BoundingBox" stroke="none" fill="none" x="11462" y="589" width="2686" height="3056"/>
         <g>
          <defs>
           <linearGradient id="gradient2" x1="12804" y1="589" x2="12804" y2="3644" gradientUnits="userSpaceOnUse">
            <stop offset="0" style="stop-color:rgb(255,203,0)"/>
            <stop offset="1" style="stop-color:rgb(240,124,0)"/>
           </linearGradient>
          </defs>
          <path style="fill:url(#gradient2)" d="M 11496,3609 L 11484,3595 11475,3579 11468,3563 11464,3547 11462,3530 11463,3513 11466,3497 11471,3481 11479,3466 11488,3452 11499,3440 11512,3429 11527,3420 11543,3414 11561,3409 11580,3408 13324,3408 13384,3405 13442,3396 13498,3382 13552,3362 13603,3337 13652,3308 13697,3274 13739,3236 13776,3194 13810,3149 13839,3101 13864,3049 13884,2995 13898,2939 13907,2881 13910,2821 13907,2761 13898,2703 13884,2647 13864,2593 13839,2542 13810,2493 13776,2448 13739,2407 13697,2369 13652,2335 13603,2306 13552,2281 13498,2261 13442,2247 13384,2238 13324,2235 11580,2235 11568,2234 11556,2233 11545,2230 11534,2226 11523,2221 11514,2215 11505,2208 11496,2200 11489,2192 11482,2183 11476,2173 11471,2163 11467,2152 11464,2141 11463,2129 11462,2117 11463,2105 11464,2093 11467,2081 11471,2070 11476,2060 11482,2050 11489,2041 11496,2032 11505,2025 11514,2018 11523,2012 11534,2007 11545,2003 11556,2000 11568,1999 11580,1998 13324,1998 13384,1995 13442,1986 13498,1972 13552,1952 13603,1927 13652,1898 13697,1864 13739,1826 13776,1784 13810,1739 13839,1691 13864,1639 13884,1585 13898,1529 13907,1471 13910,1411 13907,1351 13898,1293 13884,1237 13864,1183 13839,1132 13810,1083 13776,1038 13739,997 13697,959 13652,925 13603,896 13552,871 13498,851 13442,837 13384,828 13324,825 11580,825 11568,824 11556,823 11545,820 11534,816 11523,811 11514,805 11505,798 11496,790 11489,782 11482,773 11476,763 11471,753 11467,742 11464,731 11463,719 11462,707 11463,695 11464,683 11467,672 11471,661 11476,650 11482,641 11489,632 11496,623 11505,616 11514,609 11523,603 11534,598 11545,594 11556,591 11568,590 11580,589 13324,589 13408,593 13490,606 13569,626 13645,654 13716,688 13784,729 13848,777 13906,830 13959,888 14007,951 14048,1019 14082,1091 14110,1167 14130,1245 14143,1327 14147,1411 14145,1465 14140,1518 14131,1571 14120,1623 14104,1673 14086,1722 14065,1770 14041,1817 14013,1861 13983,1904 13951,1945 13915,1984 13877,2021 13837,2055 13794,2088 13749,2117 13794,2146 13837,2178 13877,2213 13915,2249 13951,2288 13983,2329 14013,2372 14041,2417 14065,2463 14086,2511 14104,2560 14120,2610 14131,2661 14140,2714 14145,2767 14147,2821 14143,2905 14130,2987 14110,3066 14082,3142 14048,3213 14007,3281 13959,3345 13906,3403 13848,3456 13784,3504 13716,3545 13645,3579 13569,3607 13490,3627 13408,3640 13324,3644 11580,3644 11568,3643 11562,3643 11556,3642 11550,3640 11545,3639 11534,3635 11524,3630 11514,3624 11505,3617 11496,3609 Z"/>
         </g>
        </g>
       </g>
      </g>
     </g>
    </g>
   </g>
  </g>
 </g>
</svg>